<svg width="19" height="21" viewBox="0 0 19 21" fill="none" xmlns="http://www.w3.org/2000/svg">
<path d="M3.883 16.653C3.583 16.453 3.325 16.198 3.023 15.837C2.86625 15.6451 2.71091 15.4521 2.557 15.258C2.094 14.683 1.802 14.418 1.5 14.309C1.2503 14.2194 1.04644 14.0342 0.93326 13.7942C0.820081 13.5543 0.80686 13.2792 0.896503 13.0295C0.986146 12.7798 1.17131 12.5759 1.41126 12.4628C1.65122 12.3496 1.9263 12.3364 2.176 12.426C2.928 12.696 3.437 13.161 4.123 14.014C4.029 13.897 4.463 14.441 4.556 14.553C4.746 14.78 4.886 14.918 4.996 14.991C5.2 15.128 5.583 15.187 6.146 15.131C6.169 14.749 6.24 14.378 6.348 14.036C3.38 13.31 1.7 11.396 1.7 7.64C1.7 6.4 2.07 5.284 2.758 4.348C2.54 3.454 2.573 2.373 3.06 1.156C3.11527 1.01834 3.20047 0.894691 3.30944 0.794029C3.4184 0.693366 3.5484 0.618208 3.69 0.574C3.771 0.55 3.817 0.539 3.898 0.527C4.701 0.404 5.835 0.697 7.313 1.623C8.1938 1.41708 9.09546 1.31373 10 1.315C10.912 1.315 11.818 1.419 12.684 1.623C14.161 0.69 15.297 0.397 16.106 0.527C16.191 0.54 16.263 0.557 16.324 0.577C16.4628 0.622777 16.5899 0.698434 16.6964 0.798643C16.8028 0.898852 16.886 1.02118 16.94 1.157C17.427 2.373 17.46 3.454 17.242 4.347C17.933 5.283 18.3 6.392 18.3 7.64C18.3 11.397 16.626 13.305 13.658 14.032C13.783 14.447 13.848 14.911 13.848 15.412C13.8481 16.3173 13.8441 17.2227 13.836 18.128C14.0606 18.177 14.2614 18.3018 14.4047 18.4816C14.548 18.6613 14.6251 18.8849 14.6228 19.1147C14.6206 19.3446 14.5393 19.5666 14.3925 19.7435C14.2457 19.9204 14.0425 20.0414 13.817 20.086C12.678 20.314 11.834 19.554 11.834 18.561L11.836 18.115L11.841 17.41C11.846 16.702 11.848 16.072 11.848 15.412C11.848 14.715 11.665 14.26 11.423 14.052C10.762 13.482 11.097 12.397 11.963 12.3C14.93 11.967 16.3 10.818 16.3 7.64C16.3 6.685 15.988 5.896 15.387 5.236C15.2604 5.09724 15.1754 4.92563 15.1418 4.74081C15.1082 4.55599 15.1273 4.36545 15.197 4.191C15.363 3.777 15.434 3.234 15.293 2.577L15.283 2.58C14.792 2.719 14.173 3.02 13.425 3.529C13.3044 3.61086 13.1673 3.66535 13.0234 3.68867C12.8795 3.71199 12.7323 3.70357 12.592 3.664C11.7479 3.43029 10.8759 3.31287 10 3.315C9.11 3.315 8.228 3.434 7.408 3.665C7.26822 3.70426 7.12157 3.71261 6.97824 3.68946C6.8349 3.66632 6.69833 3.61225 6.578 3.531C5.826 3.024 5.204 2.724 4.71 2.584C4.566 3.237 4.637 3.778 4.802 4.191C4.87181 4.36536 4.89111 4.55585 4.85768 4.74066C4.82425 4.92548 4.73946 5.09714 4.613 5.236C4.016 5.89 3.7 6.694 3.7 7.64C3.7 10.812 5.071 11.968 8.022 12.3C8.887 12.397 9.223 13.477 8.566 14.048C8.374 14.216 8.137 14.78 8.137 15.412V18.562C8.137 19.548 7.302 20.287 6.177 20.09C5.94877 20.0499 5.74154 19.9318 5.59072 19.7559C5.4399 19.58 5.35487 19.3571 5.35014 19.1255C5.34542 18.8938 5.4213 18.6676 5.56482 18.4857C5.70834 18.3038 5.91059 18.1773 6.137 18.128V17.138C5.227 17.199 4.475 17.05 3.883 16.653Z" fill="white"/>
</svg>
